<svg
  width="200"
  height="200"
  viewBox="0 0 200 200"
  xmlns="http://www.w3.org/2000/svg"
  role="img"
  aria-label="Logo CompareManga"
>
  <defs>
    <linearGradient id="bgGradient" x1="0%" y1="0%" x2="0%" y2="100%">
      <stop offset="0%" stop-color="#1a1a1a" />
      <stop offset="100%" stop-color="#000000" />
    </linearGradient>

    <pattern id="dots" width="6" height="6" patternUnits="userSpaceOnUse">
      <circle cx="1.5" cy="1.5" r="1" fill="#e10600" />
    </pattern>
  </defs>

  <circle cx="100" cy="100" r="96" fill="url(#bgGradient)" />

  <rect x="50" y="55" width="100" height="65" rx="6" fill="#ffffff" />
  <rect x="50" y="55" width="50" height="65" fill="url(#dots)" opacity="0.15" />
  <line x1="100" y1="55" x2="100" y2="120" stroke="#e10600" stroke-width="2" />

  <path d="M70 85 Q85 70 100 85 Q85 100 70 85 Z" fill="#000000" />
  <circle cx="88" cy="85" r="4" fill="#e10600" />
  <circle cx="89.5" cy="83.5" r="1.2" fill="#ffffff" />

  <line x1="110" y1="75" x2="140" y2="75" stroke="#000000" stroke-width="2" />
  <line x1="110" y1="85" x2="138" y2="85" stroke="#000000" stroke-width="2" />
  <line x1="110" y1="95" x2="135" y2="95" stroke="#000000" stroke-width="2" />

  <rect x="115" y="98" width="6" height="18" fill="#e10600" />
  <rect x="125" y="88" width="6" height="28" fill="#ff4d4d" />
  <rect x="135" y="94" width="6" height="22" fill="#e10600" />

  <circle cx="135" cy="105" r="10" fill="none" stroke="#000000" stroke-width="3" />
  <line x1="143" y1="113" x2="152" y2="122" stroke="#000000" stroke-width="3" />

  <text
    x="100"
    y="155"
    text-anchor="middle"
    font-size="20"
    font-weight="700"
    fill="#ffffff"
    font-family="system-ui, -apple-system, Segoe UI, Roboto, Arial, sans-serif"
  >
    CompareManga
  </text>
</svg>
